<svg xmlns="http://www.w3.org/2000/svg" width="423" height="117" viewBox="0 0 423 117">
  <g id="Grupo_5" data-name="Grupo 5" transform="translate(-273 -1035)">
    <rect id="Retângulo_2" data-name="Retângulo 2" width="423" height="117" transform="translate(273 1035)" fill="none"/>
    <path id="Caminho_5" data-name="Caminho 5" d="M156.088,0c-5.177,0-9.371,3.886-9.371,8.68s4.194,8.678,9.371,8.678,9.371-3.886,9.371-8.678S161.263,0,156.088,0Zm183.1.029c-5.175,0-9.371,3.888-9.371,8.68s4.2,8.68,9.371,8.68,9.374-3.888,9.374-8.68S344.364.029,339.189.029ZM278.643.336S267.179,6.357,261.182,9.6c.6.558,1.851,2.985,1.851,10.99,0,8.785.006,17.41.006,20.25,0,5.789-.005,16.9-.076,25.688a10.076,10.076,0,0,1-.553,2.4l17.328,0c-.17,0-1.06-5.811-1.06-5.811S278.625.014,278.643.336Zm67.679,17.139c-9.865,5.054-15.926,8.49-15.926,8.49s-.365.036-.367.914c0,3.557-.009,32.2-.009,38.031v1.063a7.471,7.471,0,0,1-.715,2.892c-.012.038.041.07.041.07h17.925s.051-.033.04-.07a7.337,7.337,0,0,1-.713-2.892V64.99c0-4.027-.008-45.8-.008-47.3A.2.2,0,0,0,346.322,17.475Zm-182.347.32c-9.872,5.02-15.932,8.432-15.932,8.432s-.361.038-.365.908c0,3.533-.008,31.981-.008,37.775,0,.562,0,.928,0,1.053a7.4,7.4,0,0,1-.713,2.873c-.014.04.041.068.041.068h17.926s.049-.029.039-.068a7.225,7.225,0,0,1-.717-2.873v-.975c0-4.005-.006-45.483,0-46.978A.2.2,0,0,0,163.975,17.795ZM368,18c-9.591,5-16.324,8.5-16.324,8.5s-.322.1-.217.326a16.13,16.13,0,0,1,.695,3.322c.006,2.341.006,29.026.006,34.807V66a7.517,7.517,0,0,1-.693,2.861c-.014.038.039.07.039.07h17.416s.047-.033.039-.07a7.274,7.274,0,0,1-.7-2.861v-27.5a7.16,7.16,0,0,1,4.375-6.912c2.055-.824,3.033-.554,6.933-.48.6.012.721-.1.856-.654.161-.651,1.985-9.007,2.267-10.572.149-.822.226-1.024-.324-1.119-3.215-.566-9.528-1.594-13.4,6.5q-.187.265-.311.414c-.145.181-.342.064-.342-.145,0-.27-.056-2.321-.056-2.971V18.207C368.264,18.01,368.1,17.944,368,18Zm-352.514.211C5.984,23.239.18,26.229.18,26.229a.332.332,0,0,0-.148.438A9.224,9.224,0,0,1,.646,29.9c0,2.357.01,27.865.008,33.68v1.572A10.587,10.587,0,0,1,.08,68.641c-.1.3.221.291.221.291l12.719,0H16.07s.391.041.256-.295a7.624,7.624,0,0,1-.6-3.492l.016-1.338c0-4.009,0-17.75,0-23.357V38.311c0-3.964,2.564-6.826,5.311-6.854,3.324.01,4.176,3.394,4.182,4.963v4.19l0,23.289s0,1.127,0,1.25a10.628,10.628,0,0,1-.576,3.492c-.093.3.221.295.221.295H40.65s.391.041.254-.295a7.638,7.638,0,0,1-.6-3.492c0-.089,0-2,0-2l0-16.559c0-1.338,0-8.3,0-8.3,0-3.964,2.566-6.828,5.313-6.856,3.324.008,4.178,3.392,4.182,4.963l0,4.176,0,22.229.02,2.346a10.7,10.7,0,0,1-.574,3.492c-.1.3.219.291.219.291l12.719,0h3.051s.393.041.256-.295a7.637,7.637,0,0,1-.6-3.492l-.021-2.342,0-23.137c0-7.806,1.869-20.476-11.088-20.476-6.621,0-9.846,2.495-13.059,7.439-.109.167-.284.181-.328,0-2.556-10.912-18.789-9.443-24-.33-.127.175-.227.319-.309.418-.145.181-.338.064-.338-.146V18.418C15.746,18.219,15.584,18.151,15.486,18.207Zm115.934.023c-9.462,4.931-16.334,8.891-16.334,8.891s-.32.092-.217.32a18.062,18.062,0,0,1,.91,4.129c.006,2.306.01,26.629.01,32.32l-.008,1.322a10.289,10.289,0,0,1-.574,3.434c-.1.3.219.289.219.289h16.586s.391.041.254-.287a7.413,7.413,0,0,1-.6-3.436l.014-1.309V39.969c0-7.538,5.909-9.5,11.273-8.236.58.139.709-.1.844-.645.161-.643,2.038-9.395,2.318-10.937.145-.81.224-1.01-.322-1.1-4.273-.721-9.881-.972-13.414,6.858-.125.173-.227.307-.311.406-.143.177-.336.064-.336-.143,0-.264-.056-2.29-.056-2.93v-4.8C131.68,18.247,131.517,18.181,131.42,18.23ZM247,18.346a26.823,26.823,0,0,0-3.307.184c-12.3,1.465-19.484,12.953-19.492,26.031-.006,14.25,8.159,31.3,34.09,23.381V59.709c-3.809,2.167-9.5,2.866-12.891-1.949a24.66,24.66,0,0,1-5.035-15.865c.014-15.612,9.73-17.656,17.108-13.063V20.8A21.987,21.987,0,0,0,247,18.346Zm-57.77.178c-12.677.084-21.07,8.933-21.838,24.883-.5,10.334,5.3,19.816,11.661,23.408,7.567,4.273,17.313,3.535,24.748.426,1.461-.612,1.394-.953,1.394-1.9v-5.91c0-.473.177-1.285-.935-.615a18.076,18.076,0,0,1-7.073,2.539c-5.431.352-9.5-.839-12.328-9.566-.447-1.37-.061-1.216.244-1.406s24.524-7.9,24.524-7.9c.441-.3.456-1.124.414-1.668-.983-13.025-9.03-21.882-19.57-22.279C190.057,18.525,189.643,18.521,189.234,18.523Zm212.92,0c-12.679.084-21.072,8.933-21.84,24.883-.5,10.334,5.3,19.816,11.661,23.408,7.567,4.273,17.317,3.535,24.748.426,1.463-.612,1.4-.953,1.4-1.9V59.434c0-.473.171-1.285-.937-.615a18.065,18.065,0,0,1-7.071,2.539c-5.435.347-9.5-.839-12.332-9.566-.445-1.37-.059-1.216.242-1.406s24.526-7.9,24.526-7.9c.445-.3.456-1.124.414-1.668-.983-13.025-9.032-21.882-19.568-22.279C402.977,18.525,402.563,18.521,402.154,18.523Zm-104.179.27a24.278,24.278,0,0,0-11.188,2.326.409.409,0,0,0-.24.4c0,1.307-.01,6.168-.022,6.65-.01.4.262.1.262.1,5.239-2.063,13.313-3.414,14.574,8.572,0,.073.186.589-.029.643-4.708,1.2-12.113,3.64-15.312,7.1-7.179,7.77-4.089,20.281,3.791,23.52,4.394,1.809,13.484,3.243,20-3.227,4.136,4.152,7.327,4.15,9.949,4.17,0,0,5.743-.014,6.021-.006.225.006.225.007.227-.744,0-.246,0-3.851,0-6.008,0-.27,0-.431-.274-.373-2.182.469-3.251-1.216-4.263-5.758-2.1-9.446-2.861-13.8-3.524-16.955-2.407-11.44-4.949-15.253-9.326-17.767A22.745,22.745,0,0,0,297.975,18.793Zm-213.59.2A24.3,24.3,0,0,0,73.2,21.316a.408.408,0,0,0-.238.4c0,1.307-.009,6.17-.021,6.652-.008.393.262.1.262.1,5.238-2.061,13.311-3.414,14.574,8.572.008.073.185.591-.027.645-4.71,1.2-12.113,3.636-15.314,7.1-7.177,7.766-4.085,20.279,3.793,23.518,4.395,1.807,13.483,3.241,20-3.227,4.138,4.15,7.332,4.15,9.951,4.168,0,0,5.745-.016,6.021,0,.225,0,.225,0,.227-.742,0-.248,0-3.851,0-6.008,0-.27,0-.431-.274-.373-2.18.467-3.249-1.216-4.259-5.762-2.105-9.444-2.862-13.8-3.528-16.953-2.406-11.438-4.951-15.256-9.328-17.768A22.739,22.739,0,0,0,84.385,18.99ZM189.2,27.1a4.725,4.725,0,0,1,3.571,2.408c1.153,1.8,2.132,4.871,2.367,9.377.089,1.773-1,1.741-1.28,1.834-1.862.637-9.46,2.992-9.46,2.992-.874.238-1.035.184-1.086-.924-.165-3.539.072-8.858,1.265-11.771C185.728,28.2,187.49,27.008,189.2,27.1Zm212.92,0a4.724,4.724,0,0,1,3.571,2.406c1.153,1.8,2.13,4.873,2.365,9.379.089,1.773-1,1.739-1.276,1.834-1.862.637-9.466,2.992-9.466,2.992-.87.238-1.033.184-1.086-.924-.163-3.539.076-8.858,1.271-11.771C398.648,28.2,400.41,27.008,402.117,27.1ZM302.494,44.922a.526.526,0,0,1,.326.129l3.559,14.037c.1.334-.322.667-.6.822-9.051,5.908-12.334-11.579-3.523-14.957A.665.665,0,0,1,302.494,44.922Zm-213.59.2a.541.541,0,0,1,.33.127l3.555,14.039c.1.332-.324.665-.6.824-9.053,5.906-12.332-11.583-3.521-14.957A.655.655,0,0,1,88.9,45.119Z" transform="translate(273 1048)"/>
  </g>
</svg>
